<svg width="1100" height="600" viewBox="0 0 1100 600" xmlns="http://www.w3.org/2000/svg">
  <style>
    .bg { fill:#0b1220; }
    .box { fill:#111827; stroke:#38bdf8; stroke-width:2; rx:14; }
    .title { fill:white; font-family:Arial; font-size:22px; font-weight:bold; }
    .label { fill:#e5e7eb; font-family:Arial; font-size:15px; }
    .arrow { stroke:#94a3b8; stroke-width:2.5; marker-end:url(#arrow); }
  </style>

  <defs>
    <marker id="arrow" markerWidth="10" markerHeight="10" refX="8" refY="3" orient="auto">
      <polygon points="0 0, 10 3, 0 6" fill="#94a3b8"/>
    </marker>
  </defs>

  <rect width="100%" height="100%" class="bg"/>

  <text x="550" y="40" text-anchor="middle" class="title">
    High Availability HPC Cluster Architecture
  </text>

  <rect x="450" y="70" width="200" height="55" class="box"/>
  <text x="550" y="105" text-anchor="middle" class="label">External Users</text>

  <rect x="450" y="150" width="200" height="55" class="box"/>
  <text x="550" y="185" text-anchor="middle" class="label">WireGuard VPN</text>

  <rect x="420" y="235" width="260" height="70" class="box"/>
  <text x="550" y="265" text-anchor="middle" class="label">Login Node Gateway</text>
  <text x="550" y="285" text-anchor="middle" class="label">(LDAP • NFS • Web Portal)</text>

  <rect x="150" y="350" width="260" height="80" class="box"/>
  <text x="280" y="385" text-anchor="middle" class="label">Active Master</text>
  <text x="280" y="405" text-anchor="middle" class="label">(Slurm Controller)</text>

  <rect x="690" y="350" width="260" height="80" class="box"/>
  <text x="820" y="385" text-anchor="middle" class="label">Passive Master</text>
  <text x="820" y="405" text-anchor="middle" class="label">(Failover Node)</text>

  <rect x="230" y="470" width="180" height="70" class="box"/>
  <text x="320" y="510" text-anchor="middle" class="label">Worker Node 1</text>

  <rect x="690" y="470" width="180" height="70" class="box"/>
  <text x="780" y="510" text-anchor="middle" class="label">Worker Node 2</text>

  <line x1="550" y1="125" x2="550" y2="150" class="arrow"/>
  <line x1="550" y1="205" x2="550" y2="235" class="arrow"/>
  <line x1="550" y1="305" x2="280" y2="350" class="arrow"/>
  <line x1="550" y1="305" x2="820" y2="350" class="arrow"/>
  <line x1="280" y1="430" x2="320" y2="470" class="arrow"/>
  <line x1="820" y1="430" x2="780" y2="470" class="arrow"/>
  <line x1="410" y1="390" x2="690" y2="390" class="arrow"/>
</svg>
